<?xml version="1.0" encoding="iso-8859-1"?>
<!-- Generator: Adobe Illustrator 19.0.0, SVG Export Plug-In . SVG Version: 6.00 Build 0)  -->
<svg version="1.1" id="Layer_1" xmlns="http://www.w3.org/2000/svg" xmlns:xlink="http://www.w3.org/1999/xlink" x="0px" y="0px"
	 viewBox="0 0 295.786 295.786" style="enable-background:new 0 0 295.786 295.786;" xml:space="preserve">
<g>
	<g>
		<path fill="#fff" stroke="#fff" stroke-width="5px" d="M286.411,283.831h-13.866c-8.044,0-15.788-2.944-21.797-8.288l-25.275-22.463v-67.927
			c31.411-2.409,56.25-28.683,56.25-60.698c0-18.652-8.489-36.098-22.936-47.63c5.752-7.955,8.873-17.508,8.873-27.37
			c0-25.847-21.028-46.875-46.875-46.875c-25.847,0-46.875,21.028-46.875,46.875c0,9.863,3.122,19.416,8.873,27.37
			c-14.447,11.531-22.936,28.978-22.936,47.63c0,32.016,24.839,58.289,56.25,60.698v59.592l-28.416-25.261
			c-5.302-4.711-11.658-7.931-18.459-9.516v-33.952c0-12.923-10.514-23.438-23.438-23.438h-9.375V86.956h14.536L82.392,2.581H68.55
			L0,86.956h14.536v196.875H5.161v9.375h267.384h13.866h9.375v-9.375H286.411z M127.036,283.831H23.911v-65.625h103.125V283.831z
			 M23.911,208.831v-65.625h9.375v65.625H23.911z M42.661,208.831v-65.625h9.375v65.625H42.661z M61.411,208.831v-65.625h9.375
			v65.625H61.411z M80.161,208.831v-65.625h9.375v65.625H80.161z M98.911,208.831v-65.625h9.375v65.625H98.911z M127.036,208.831
			h-9.375v-65.625h9.375V208.831z M127.036,133.831H23.911V86.956h103.125V133.831z M19.697,77.581l53.32-65.625h4.912l53.32,65.625
			H19.697z M136.411,161.956h9.375c7.753,0,14.063,6.309,14.063,14.063h-23.438V161.956z M136.411,185.393h23.438v23.447
			c-0.066,0.001-0.132-0.009-0.197-0.009h-23.241V185.393z M216.098,283.832H136.41v-65.625h23.241
			c8.044,0,15.787,2.944,21.797,8.288l34.65,30.796V283.832z M242.483,101.355l-21.698,8.677l-21.694-8.681l-3.483,8.705
			l20.489,8.198v57.525c-26.239-2.376-46.874-24.473-46.874-51.323c0-17.227,8.564-33.248,22.903-42.858l4.5-3.019l-3.633-4.022
			c-6.262-6.923-9.708-15.839-9.708-25.102c0-20.677,16.823-37.5,37.5-37.5s37.5,16.823,37.5,37.5
			c0,9.263-3.445,18.178-9.708,25.102l-3.633,4.022l4.5,3.019c14.339,9.609,22.903,25.631,22.903,42.858
			c0,26.85-20.634,48.947-46.875,51.323v-57.525l20.494-8.194L242.483,101.355z M225.473,283.832v-0.001v-18.206l19.041,16.927
			c0.511,0.455,1.055,0.858,1.58,1.28H225.473z"/>
	</g>
</g>
</svg>
