<?xml version="1.0" encoding="iso-8859-1"?>
<!-- Generator: Adobe Illustrator 16.0.0, SVG Export Plug-In . SVG Version: 6.00 Build 0)  -->
<!DOCTYPE svg PUBLIC "-//W3C//DTD SVG 1.1//EN" "http://www.w3.org/Graphics/SVG/1.1/DTD/svg11.dtd">
<svg version="1.1" id="Capa_1" xmlns="http://www.w3.org/2000/svg" xmlns:xlink="http://www.w3.org/1999/xlink" x="0px" y="0px"
	 width="72.824px" height="72.824px" viewBox="0 0 72.824 72.824" style="enable-background:new 0 0 72.824 72.824;"
	 xml:space="preserve">
<g>
	<g fill="#fff" stroke="#fff" stroke-width="0px">
		<path d="M72.223,40.565L58.406,26.748v-9.113c0-1.135-0.92-2.056-2.057-2.056c-1.135,0-2.056,0.921-2.056,2.056v5.002l-9.75-9.748
			c-0.801-0.803-2.104-0.803-2.903,0L25.716,28.813c0.631,1.463,1.008,3.06,1.078,4.734l16.3-16.298l26.223,26.224
			c0.4,0.398,0.928,0.603,1.453,0.603c0.524,0,1.053-0.201,1.453-0.603C73.025,42.67,73.025,41.367,72.223,40.565z"/>
		<path d="M66.342,42.924L44.546,21.128c-0.387-0.385-0.907-0.602-1.452-0.602s-1.068,0.217-1.453,0.602L26.929,35.839
			c1.632,1.029,2.706,2.84,2.706,4.92v15.658c0,1.607-0.655,3.064-1.71,4.119h6.869c1.377,0,2.706-0.582,3.646-1.6
			c0.854-0.922,1.324-2.117,1.324-3.369v-7.812c0-1.896,1.453-3.479,3.33-3.658c1.877,0.179,3.33,1.763,3.33,3.658v7.812
			c0,1.252,0.471,2.447,1.323,3.369c0.938,1.018,2.269,1.6,3.646,1.6h10.639c2.738,0,4.969-2.229,4.969-4.969V44.932
			c0-0.312-0.029-0.629-0.092-0.942C66.829,43.586,66.633,43.215,66.342,42.924z"/>
		<path d="M23.895,37.852v-3.735c0-5.809-4.726-10.534-10.534-10.534c-5.808,0-10.535,4.725-10.535,10.534v3.735
			C1.259,37.896,0,39.18,0,40.76v15.658c0,1.607,1.305,2.912,2.914,2.912h20.895c1.609,0,2.914-1.305,2.914-2.912V40.76
			C26.722,39.18,25.462,37.896,23.895,37.852z M15.353,49.67v2.258c0,1.101-0.891,1.99-1.991,1.99c-1.1,0-1.991-0.891-1.991-1.99
			V49.67c-0.92-0.633-1.525-1.693-1.525-2.896c0-1.94,1.574-3.517,3.517-3.517c1.94,0,3.517,1.574,3.517,3.517
			C16.877,47.977,16.273,49.035,15.353,49.67z M6.938,37.846v-3.729c0-3.543,2.881-6.424,6.423-6.424
			c3.541,0,6.423,2.881,6.423,6.424l0.001,3.729H6.938z"/>
		<path d="M13.361,46.172c-0.332,0-0.604,0.271-0.604,0.604c0,0.282,0.186,0.44,0.266,0.495l0.338,0.232l0.339-0.232
			c0.079-0.055,0.265-0.213,0.265-0.495C13.964,46.442,13.693,46.172,13.361,46.172z"/>
	</g>
</g>
</svg>
