<?xml version="1.0" encoding="utf-8"?>
<!-- Generator: Adobe Illustrator 21.0.0, SVG Export Plug-In . SVG Version: 6.00 Build 0)  -->
<svg version="1.1" baseProfile="tiny" id="Layer_1" xmlns="http://www.w3.org/2000/svg" xmlns:xlink="http://www.w3.org/1999/xlink"
	 x="0px" y="0px" viewBox="0 0 2880 1660" xml:space="preserve">
<image width="2880" height="1660" xlink:href="img/bg-sec1.png" >
</image>
<g>
	<path id="SvgjsPath1007_2_" fill="#04BB00" d="M1658.7,878.6c20.8,0,37.7,17.3,37.7,38.7c0,21.4-37.7,55.7-37.7,55.7
		s-37.7-34.3-37.7-55.7C1621,895.9,1637.9,878.6,1658.7,878.6z"/>
	<image width="59" height="42" xlink:href="img/icn-horse.png"  transform="matrix(0.8994 0 0 0.8994 1632.1499 896.8974)">
	</image>
</g>
<g>
	<path id="SvgjsPath1007" fill="#D200FF" d="M2492.6,547.1c20.8,0,37.7,17.3,37.7,38.7c0,21.4-37.7,55.7-37.7,55.7
		s-37.7-34.3-37.7-55.7C2455,564.4,2471.8,547.1,2492.6,547.1z"/>
	<image width="59" height="42" xlink:href="img/icn-horse.png"  transform="matrix(0.8994 0 0 0.8994 2466.1082 568.414)">
	</image>
</g>
<g>
	<path id="SvgjsPath1007_3_" fill="#00A2FF" d="M2159.7,386.8c20.8,0,37.7,17.3,37.7,38.7c0,21.4-37.7,55.7-37.7,55.7
		s-37.7-34.3-37.7-55.7C2122,404.1,2138.8,386.8,2159.7,386.8z"/>
	<image width="59" height="42" xlink:href="img/icn-horse.png"  transform="matrix(0.8994 0 0 0.8994 2133.1248 408.1122)">
	</image>
</g>
<g>
	<path id="SvgjsPath1007_4_" fill="#D71E29" d="M1134,976.4c20.8,0,37.7,17.3,37.7,38.7c0,21.4-37.7,55.7-37.7,55.7
		s-37.7-34.3-37.7-55.7C1096.3,993.7,1113.2,976.4,1134,976.4z"/>
	<image width="59" height="42" xlink:href="img/icn-horse.png"  transform="matrix(0.8994 0 0 0.8994 1107.467 997.6834)">
	</image>
</g>
<g>
	<path id="SvgjsPath1007_5_" fill="#FF7E00" d="M754.5,379.8c20.8,0,37.7,17.3,37.7,38.7c0,21.4-37.7,55.7-37.7,55.7
		s-37.7-34.3-37.7-55.7C716.8,397.1,733.7,379.8,754.5,379.8z"/>
	<image width="59" height="42" xlink:href="img/icn-horse.png"  transform="matrix(0.8994 0 0 0.8994 727.9861 401.1122)">
	</image>
</g>
<g>
	<path id="SvgjsPath1007_1_" fill="#FFBA00" d="M1270.2,566.6c20.8,0,37.7,17.3,37.7,38.7c0,21.4-37.7,55.7-37.7,55.7
		s-37.7-34.3-37.7-55.7C1232.5,583.9,1249.4,566.6,1270.2,566.6z"/>
	<image width="59" height="42" xlink:href="img/icn-horse.png"  transform="matrix(0.8994 0 0 0.8994 1243.6693 587.3018)">
	</image>
</g>
</svg>
