<svg id="SvgjsSvg1015" xmlns="http://www.w3.org/2000/svg" version="1.1" xmlns:xlink="http://www.w3.org/1999/xlink" xmlns:svgjs="http://svgjs.com/svgjs" width="644" height="709" viewBox="0 0 644 709"><title>Rounded Rectangle 2</title><desc>Created with Avocode.</desc><defs id="SvgjsDefs1016"><filter id="SvgjsFilter1018" width="200%" height="200%" x="-50%" y="-50%"><feMorphology id="SvgjsFeMorphology1019" operator="dilate" radius="0" result="SvgjsFeMorphology1019Out" in="SourceGraphic"></feMorphology><feOffset id="SvgjsFeOffset1020" dx="0" dy="20" result="SvgjsFeOffset1020Out" in="SvgjsFeMorphology1019Out"></feOffset><feGaussianBlur id="SvgjsFeGaussianBlur1021" stdDeviation="50 " result="SvgjsFeGaussianBlur1021Out" in="SvgjsFeOffset1020Out"></feGaussianBlur><feComposite id="SvgjsFeComposite1022" in="SvgjsFeGaussianBlur1021Out" in2="SourceAlpha" operator="out" result="SvgjsFeComposite1022Out"></feComposite></filter></defs><path id="SvgjsPath1017" d="M951 783H1371C1377.63 783 1383 788.373 1383 795V1280C1383 1286.63 1377.63 1292 1371 1292H951C944.373 1292 939 1286.63 939 1280V795C939 788.373 944.373 783 951 783Z " fill="#000000" fill-opacity="0.5" filter="url(#SvgjsFilter1018)" transform="matrix(1,0,0,1,-839,-703)"></path><path id="SvgjsPath1023" d="M951 783H1371C1377.63 783 1383 788.373 1383 795V1280C1383 1286.63 1377.63 1292 1371 1292H951C944.373 1292 939 1286.63 939 1280V795C939 788.373 944.373 783 951 783Z " fill="#ffffff" fill-opacity="1" transform="matrix(1,0,0,1,-839,-703)"></path><path id="SvgjsPath1024" d="M1383 1262V1280C1383 1286.63 1377.63 1292 1371 1292H951C944.373 1292 939 1286.63 939 1280V1262Z " fill="#d70033" fill-opacity="1" transform="matrix(1,0,0,1,-839,-703)"></path></svg>