<svg id="Layer_1" data-name="Layer 1" xmlns="http://www.w3.org/2000/svg" xmlns:xlink="http://www.w3.org/1999/xlink" viewBox="0 0 1920 1081">
  <defs>
    <style>
      .cls-1 {
        opacity: 0.5;
      }

      .cls-2 {
        fill: #fff;
      }

      .cls-3 {
        fill: #d70033;
      }

      .cls-4 {
        font-size: 29px;
        font-family: Roboto-Bold, Roboto;
        font-weight: 700;
      }

      .cls-5 {
        letter-spacing: -0.03em;
      }

      .cls-6 {
        letter-spacing: -0.02em;
      }

      .cls-7 {
        letter-spacing: -0.01em;
      }

      .cls-8 {
        font-size: 15px;
        font-family: Roboto-Regular, Roboto;
      }

      .cls-9 {
        letter-spacing: -0.04em;
      }

      .cls-10 {
        letter-spacing: -0.01em;
      }

      .cls-11 {
        letter-spacing: -0.01em;
      }

      .cls-12 {
        letter-spacing: -0.01em;
      }

      .cls-13 {
        letter-spacing: -0.01em;
      }

      .cls-14 {
        fill: none;
      }
    </style>
  </defs>
  <title>plan_build</title>
  <image width="1920" height="1081" xlink:href="plan_build.jpg"/>
  <g>
    <g id="SvgjsPath1017">
      <rect class="cls-1" x="681" y="381.64" width="303" height="347.36" rx="8.19" ry="8.19"/>
    </g>
    <path id="SvgjsPath1023" class="cls-2" d="M689.19,381.64H975.81a8.19,8.19,0,0,1,8.19,8.19v331a8.19,8.19,0,0,1-8.19,8.19H689.19a8.19,8.19,0,0,1-8.19-8.19v-331A8.19,8.19,0,0,1,689.19,381.64Z"/>
    <path id="SvgjsPath1024" class="cls-3" d="M984,708.53v12.28a8.19,8.19,0,0,1-8.19,8.19H689.19a8.19,8.19,0,0,1-8.19-8.19V708.53Z"/>
    <text class="cls-4" transform="translate(763.99 506.5)">Выбери<tspan class="cls-5" x="107.48" y="0">т</tspan><tspan x="121.34" y="0">е</tspan><tspan class="cls-6" x="33.84" y="34.8">э</tspan><tspan class="cls-7" x="48.32" y="34.8">т</tspan><tspan x="62.86" y="34.8">аж</tspan></text>
    <text class="cls-8" transform="translate(761.63 574)">наведи<tspan class="cls-9" x="51.04" y="0">т</tspan><tspan x="57.66" y="0">е мыш</tspan><tspan class="cls-10" x="104.22" y="0">к</tspan><tspan x="112.16" y="0">ой и</tspan><tspan x="-24.64" y="18">кликни</tspan><tspan class="cls-9" x="26.2" y="18">т</tspan><tspan x="32.82" y="18">е на </tspan><tspan class="cls-9" x="65" y="18">э</tspan><tspan class="cls-7" x="72.48" y="18">т</tspan><tspan x="79.57" y="18">аж, </tspan><tspan class="cls-10" x="105.87" y="18">к</tspan><tspan class="cls-11" x="113.82" y="18">о</tspan><tspan class="cls-6" x="122.21" y="18">т</tspan><tspan x="129.11" y="18">орый</tspan><tspan class="cls-12" x="4.25" y="36">х</tspan><tspan class="cls-11" x="11.54" y="36">о</tspan><tspan x="19.93" y="36">ти</tspan><tspan class="cls-9" x="35.79" y="36">т</tspan><tspan x="42.41" y="36">е посм</tspan><tspan class="cls-11" x="90.26" y="36">о</tspan><tspan x="98.66" y="36">тр</tspan><tspan class="cls-13" x="114.28" y="36">е</tspan><tspan x="122.15" y="36">ть</tspan></text>
  </g>
  <polygon class="cls-14" points="1002.5 930 1002.5 866.5 1023 866.5 1323.5 831.5 1323.5 880.75 1023 931 1002.5 930"/>
  <polygon class="cls-14" points="1002.5 804 1002.5 866.5 1020.5 866.5 1323.5 831.5 1323.5 781.5 1023.5 805.5 1002.5 804"/>
  <polygon class="cls-14" points="1002.5 804 1002.5 742.5 1022.67 744.33 1323.5 731.5 1323.5 781.5 1023.5 805.5 1002.5 804"/>
  <polygon class="cls-14" points="1002.5 681.5 1002.5 742.5 1022.67 744.33 1323.5 731.5 1323.5 681.5 1023 681.5 1002.5 681.5"/>
  <polygon class="cls-14" points="1002.5 619.5 1002.5 681.5 1023 681.5 1323.5 681.5 1323.5 632.5 1002.5 619.5"/>
  <polygon class="cls-14" points="1002.5 559 1002.5 619.5 1022.34 620.3 1323.5 632.5 1323.5 582.33 1023.33 559 1002.5 559"/>
  <polygon class="cls-14" points="1002.5 499 1002.5 559 1023.33 559 1323.5 582.33 1323.5 532.33 1023 496 1002.5 499"/>
  <polygon class="cls-14" points="1002.5 438.67 1002.5 499 1023 496 1323.5 532.33 1323.5 482.67 1022.67 434.67 1002.5 438.67"/>
  <polygon class="cls-14" points="1002.5 377.67 1002.5 438.67 1022.67 434.67 1323.5 482.67 1323.5 433.33 1023 373.67 1002.5 377.67"/>
  <polygon class="cls-14" points="1002.5 318.5 1002.5 377.67 1023 373.67 1323.5 433.33 1323.5 381.64 1021.5 314.5 1002.5 318.5"/>
  <polygon class="cls-14" points="1002.5 257 1002.5 318.5 1021.5 314.5 1323.5 381.64 1323.5 330 1023 253 1002.5 257"/>
  <polygon class="cls-14" points="1002.5 194 1002.5 257 1023 253 1323.5 330 1323.5 282.5 1023.5 190.5 1002.5 194"/>
  <polygon class="cls-14" points="1002.5 129.5 1002.5 194 1023.5 190.5 1323.5 282.5 1323.5 231.5 1023.5 123 1002.5 129.5"/>
  <polygon class="cls-14" points="996.16 1059.27 1301.67 985.33 1301.67 938.33 1022.67 993.67 996.16 991.83 996.16 1059.27"/>
  <polygon class="cls-14" points="1002.5 930 1002.5 991.33 1022.67 993.67 1323.5 934 1323.5 880.75 1023 931 1002.5 930"/>
</svg>
