<svg id="SvgjsSvg1000" xmlns="http://www.w3.org/2000/svg" version="1.1" xmlns:xlink="http://www.w3.org/1999/xlink" xmlns:svgjs="http://svgjs.com/svgjs" width="267" height="50" viewBox="0 0 267 50"><title>Rounded Rectangle 1</title><desc>Created with Avocode.</desc><defs id="SvgjsDefs1001"></defs><path id="SvgjsPath1007" d="M711.333 390.667H961.333C965.752 390.667 969.333 394.24899999999997 969.333 398.666V420C969.333 424.418 965.752 428 961.333 428C961.333 428 919.525 428 870.103 428C866.3069999999999 428 853.871 440 850 440C850.132 439.917 855.275 428 851.333 428C785.539 428 711.333 428 711.333 428C706.915 428 703.333 424.418 703.333 420V398.666C703.333 394.249 706.915 390.667 711.333 390.667Z " fill="#ffffff" fill-opacity="1" transform="matrix(1,0,0,1,-703,-390)"></path></svg>