<svg id="SvgjsSvg1008" xmlns="http://www.w3.org/2000/svg" version="1.1" xmlns:xlink="http://www.w3.org/1999/xlink" xmlns:svgjs="http://svgjs.com/svgjs" width="194" height="109" viewBox="0 0 194 109"><title>Rounded Rectangle 3 copy 6</title><desc>Created with Avocode.</desc><defs id="SvgjsDefs1009"></defs><path id="SvgjsPath1010" d="M1471.33 6107.33H1648.6699999999998C1653.08 6107.33 1656.6699999999998 6110.92 1656.6699999999998 6115.33V6194C1656.6699999999998 6198.42 1653.08 6202 1648.6699999999998 6202H1573.33L1560 6215.33L1546.67 6202H1471.3300000000002C1466.92 6202 1463.3300000000002 6198.42 1463.3300000000002 6194V6115.33C1463.3300000000002 6110.92 1466.92 6107.33 1471.3300000000002 6107.33Z " fill="#ffffff" fill-opacity="1" transform="matrix(1,0,0,1,-1463,-6107)"></path><path id="SvgjsPath1011" d="M1656.67 6166V6194C1656.67 6198.42 1653.0800000000002 6202 1648.67 6202H1573.3300000000002L1560.0000000000002 6215.33L1546.6700000000003 6202H1471.3300000000004C1466.9200000000003 6202 1463.3300000000004 6198.42 1463.3300000000004 6194V6166 " fill="#e6e6e6" fill-opacity="1" transform="matrix(1,0,0,1,-1463,-6107)"></path></svg>