<svg id="Layer_1" data-name="Layer 1" xmlns="http://www.w3.org/2000/svg" xmlns:xlink="http://www.w3.org/1999/xlink" viewBox="0 0 2212 1308.3">
  <defs>
    <style>
      .cls-1 {
        fill: #fff;
      }

      .cls-2 {
        fill: #e6e6e6;
      }

      .cls-3 {
        font-size: 17px;
        fill: #333;
        font-family: Roboto-Regular, Roboto;
      }

      .cls-4 {
        letter-spacing: 0.01em;
      }

      .cls-5 {
        letter-spacing: -0.03em;
      }

      .cls-6 {
        letter-spacing: 0.01em;
      }

      .cls-7 {
        letter-spacing: -0.04em;
      }

      .cls-8 {
        letter-spacing: 0.01em;
      }

      .cls-9 {
        font-size: 32.78px;
        fill: #c70000;
        font-family: Roboto-Bold, Roboto;
        font-weight: 700;
      }
    </style>
  </defs>
  <title>sec-7-bg-2</title>
  <image width="2212" height="1279" transform="translate(0 29.3)" xlink:href="sec-7-bg-2.png"/>
  <g>
    <path id="SvgjsPath1010" class="cls-1" d="M1875.08,690.65h260.5a11.77,11.77,0,0,1,11.75,11.75V818a11.76,11.76,0,0,1-11.75,11.75H2024.91l-19.58,19.58-19.58-19.58H1875.08A11.76,11.76,0,0,1,1863.33,818V702.4A11.77,11.77,0,0,1,1875.08,690.65Z"/>
    <path id="SvgjsPath1011" class="cls-2" d="M2147.33,776.83V818a11.76,11.76,0,0,1-11.75,11.75H2024.91l-19.58,19.58-19.58-19.58H1875.08A11.76,11.76,0,0,1,1863.33,818V776.83"/>
    <text class="cls-3" transform="translate(1907.33 809.96)">С<tspan class="cls-4" x="11.06" y="0">Д</tspan><tspan class="cls-5" x="23.98" y="0">А</tspan><tspan class="cls-6" x="34.61" y="0">Ч</tspan><tspan x="46.4" y="0">А: 3 КВАР</tspan><tspan class="cls-7" x="122.89" y="0">Т</tspan><tspan class="cls-8" x="132.38" y="0">А</tspan><tspan x="143.61" y="0">Л 2018</tspan></text>
    <text class="cls-9" transform="translate(1969.33 746.41) scale(1.04 1)">37/7</text>
  </g>
  <g>
    <path id="SvgjsPath1010-2" data-name="SvgjsPath1010" class="cls-1" d="M1603.59,889.08h260.5a11.77,11.77,0,0,1,11.75,11.75v115.56a11.76,11.76,0,0,1-11.75,11.75H1753.43l-19.58,19.58-19.58-19.58H1603.59a11.76,11.76,0,0,1-11.75-11.75V900.83A11.77,11.77,0,0,1,1603.59,889.08Z"/>
    <path id="SvgjsPath1011-2" data-name="SvgjsPath1011" class="cls-2" d="M1875.85,975.26v41.13a11.76,11.76,0,0,1-11.75,11.75H1753.43l-19.58,19.58-19.58-19.58H1603.59a11.76,11.76,0,0,1-11.75-11.75V975.26"/>
    <text class="cls-3" transform="translate(1635.85 1008.39)">С<tspan class="cls-4" x="11.06" y="0">Д</tspan><tspan class="cls-5" x="23.98" y="0">А</tspan><tspan class="cls-6" x="34.61" y="0">Ч</tspan><tspan x="46.4" y="0">А: 3 КВАР</tspan><tspan class="cls-7" x="122.89" y="0">Т</tspan><tspan class="cls-8" x="132.38" y="0">А</tspan><tspan x="143.61" y="0">Л 2018</tspan></text>
    <text class="cls-9" transform="translate(1697.85 944.84) scale(1.04 1)">37/8</text>
  </g>
  <g>
    <path id="SvgjsPath1010-3" data-name="SvgjsPath1010" class="cls-1" d="M1265.59,889.08h260.5a11.77,11.77,0,0,1,11.75,11.75v115.56a11.76,11.76,0,0,1-11.75,11.75H1415.43l-19.58,19.58-19.58-19.58H1265.59a11.76,11.76,0,0,1-11.75-11.75V900.83A11.77,11.77,0,0,1,1265.59,889.08Z"/>
    <path id="SvgjsPath1011-3" data-name="SvgjsPath1011" class="cls-2" d="M1537.85,975.26v41.13a11.76,11.76,0,0,1-11.75,11.75H1415.43l-19.58,19.58-19.58-19.58H1265.59a11.76,11.76,0,0,1-11.75-11.75V975.26"/>
    <text class="cls-3" transform="translate(1297.85 1008.39)">С<tspan class="cls-4" x="11.06" y="0">Д</tspan><tspan class="cls-5" x="23.98" y="0">А</tspan><tspan class="cls-6" x="34.61" y="0">Ч</tspan><tspan x="46.4" y="0">А: 3 КВАР</tspan><tspan class="cls-7" x="122.89" y="0">Т</tspan><tspan class="cls-8" x="132.38" y="0">А</tspan><tspan x="143.61" y="0">Л 2018</tspan></text>
    <text class="cls-9" transform="translate(1359.85 944.84) scale(1.04 1)">37/9</text>
  </g>
  <g>
    <path id="SvgjsPath1010-4" data-name="SvgjsPath1010" class="cls-1" d="M924.59,889.08h260.5a11.77,11.77,0,0,1,11.75,11.75v115.56a11.76,11.76,0,0,1-11.75,11.75H1074.43l-19.58,19.58-19.58-19.58H924.59a11.76,11.76,0,0,1-11.75-11.75V900.83A11.77,11.77,0,0,1,924.59,889.08Z"/>
    <path id="SvgjsPath1011-4" data-name="SvgjsPath1011" class="cls-2" d="M1196.85,975.26v41.13a11.76,11.76,0,0,1-11.75,11.75H1074.43l-19.58,19.58-19.58-19.58H924.59a11.76,11.76,0,0,1-11.75-11.75V975.26"/>
    <text class="cls-3" transform="translate(956.85 1008.39)">С<tspan class="cls-4" x="11.06" y="0">Д</tspan><tspan class="cls-5" x="23.98" y="0">А</tspan><tspan class="cls-6" x="34.61" y="0">Ч</tspan><tspan x="46.4" y="0">А: 3 КВАР</tspan><tspan class="cls-7" x="122.89" y="0">Т</tspan><tspan class="cls-8" x="132.38" y="0">А</tspan><tspan x="143.61" y="0">Л 2018</tspan></text>
    <text class="cls-9" transform="translate(1009.85 944.84) scale(1.04 1)">37/10</text>
  </g>
  <g>
    <path id="SvgjsPath1010-5" data-name="SvgjsPath1010" class="cls-1" d="M584.59,889.08H845.1a11.77,11.77,0,0,1,11.75,11.75v115.56a11.76,11.76,0,0,1-11.75,11.75H734.43l-19.58,19.58-19.58-19.58H584.59a11.76,11.76,0,0,1-11.75-11.75V900.83A11.77,11.77,0,0,1,584.59,889.08Z"/>
    <path id="SvgjsPath1011-5" data-name="SvgjsPath1011" class="cls-2" d="M856.85,975.26v41.13a11.76,11.76,0,0,1-11.75,11.75H734.43l-19.58,19.58-19.58-19.58H584.59a11.76,11.76,0,0,1-11.75-11.75V975.26"/>
    <text class="cls-3" transform="translate(616.85 1008.39)">С<tspan class="cls-4" x="11.06" y="0">Д</tspan><tspan class="cls-5" x="23.98" y="0">А</tspan><tspan class="cls-6" x="34.61" y="0">Ч</tspan><tspan x="46.4" y="0">А: 3 КВАР</tspan><tspan class="cls-7" x="122.89" y="0">Т</tspan><tspan class="cls-8" x="132.38" y="0">А</tspan><tspan x="143.61" y="0">Л 2018</tspan></text>
    <text class="cls-9" transform="translate(673.85 944.84) scale(1.04 1)">37/11</text>
  </g>
  <g>
    <path id="SvgjsPath1010-6" data-name="SvgjsPath1010" class="cls-1" d="M244.59,889.08H505.1a11.77,11.77,0,0,1,11.75,11.75v115.56a11.76,11.76,0,0,1-11.75,11.75H394.43l-19.58,19.58-19.58-19.58H244.59a11.76,11.76,0,0,1-11.75-11.75V900.83A11.77,11.77,0,0,1,244.59,889.08Z"/>
    <path id="SvgjsPath1011-6" data-name="SvgjsPath1011" class="cls-2" d="M516.85,975.26v41.13a11.76,11.76,0,0,1-11.75,11.75H394.43l-19.58,19.58-19.58-19.58H244.59a11.76,11.76,0,0,1-11.75-11.75V975.26"/>
    <text class="cls-3" transform="translate(276.85 1008.39)">С<tspan class="cls-4" x="11.06" y="0">Д</tspan><tspan class="cls-5" x="23.98" y="0">А</tspan><tspan class="cls-6" x="34.61" y="0">Ч</tspan><tspan x="46.4" y="0">А: 3 КВАР</tspan><tspan class="cls-7" x="122.89" y="0">Т</tspan><tspan class="cls-8" x="132.38" y="0">А</tspan><tspan x="143.61" y="0">Л 2018</tspan></text>
    <text class="cls-9" transform="translate(333.85 944.84) scale(1.04 1)">37/12</text>
  </g>
  <g>
    <path id="SvgjsPath1010-7" data-name="SvgjsPath1010" class="cls-1" d="M194.59,512.54H455.1a11.77,11.77,0,0,1,11.75,11.75V639.85A11.76,11.76,0,0,1,455.1,651.6H344.43l-19.58,19.58L305.26,651.6H194.59a11.76,11.76,0,0,1-11.75-11.75V524.29A11.77,11.77,0,0,1,194.59,512.54Z"/>
    <path id="SvgjsPath1011-7" data-name="SvgjsPath1011" class="cls-2" d="M466.85,598.72v41.13A11.76,11.76,0,0,1,455.1,651.6H344.43l-19.58,19.58L305.26,651.6H194.59a11.76,11.76,0,0,1-11.75-11.75V598.72"/>
    <text class="cls-3" transform="translate(226.85 631.85)">С<tspan class="cls-4" x="11.06" y="0">Д</tspan><tspan class="cls-5" x="23.98" y="0">А</tspan><tspan class="cls-6" x="34.61" y="0">Ч</tspan><tspan x="46.4" y="0">А: 3 КВАР</tspan><tspan class="cls-7" x="122.89" y="0">Т</tspan><tspan class="cls-8" x="132.38" y="0">А</tspan><tspan x="143.61" y="0">Л 2018</tspan></text>
    <text class="cls-9" transform="translate(281.85 568.3) scale(1.04 1)">37/13</text>
  </g>
  <g>
    <path id="SvgjsPath1010-8" data-name="SvgjsPath1010" class="cls-1" d="M244.59,0H505.1a11.77,11.77,0,0,1,11.75,11.75V127.31a11.76,11.76,0,0,1-11.75,11.75H394.43l-19.58,19.58-19.58-19.58H244.59a11.76,11.76,0,0,1-11.75-11.75V11.75A11.77,11.77,0,0,1,244.59,0Z"/>
    <path id="SvgjsPath1011-8" data-name="SvgjsPath1011" class="cls-2" d="M516.85,86.18v41.13a11.76,11.76,0,0,1-11.75,11.75H394.43l-19.58,19.58-19.58-19.58H244.59a11.76,11.76,0,0,1-11.75-11.75V86.18"/>
    <text class="cls-3" transform="translate(276.85 119.31)">С<tspan class="cls-4" x="11.06" y="0">Д</tspan><tspan class="cls-5" x="23.98" y="0">А</tspan><tspan class="cls-6" x="34.61" y="0">Ч</tspan><tspan x="46.4" y="0">А: 3 КВАР</tspan><tspan class="cls-7" x="122.89" y="0">Т</tspan><tspan class="cls-8" x="132.38" y="0">А</tspan><tspan x="143.61" y="0">Л 2018</tspan></text>
    <text class="cls-9" transform="translate(338.85 55.76) scale(1.04 1)">37/1</text>
  </g>
  <g>
    <path id="SvgjsPath1010-9" data-name="SvgjsPath1010" class="cls-1" d="M584.59,0H845.1a11.77,11.77,0,0,1,11.75,11.75V127.31a11.76,11.76,0,0,1-11.75,11.75H734.43l-19.58,19.58-19.58-19.58H584.59a11.76,11.76,0,0,1-11.75-11.75V11.75A11.77,11.77,0,0,1,584.59,0Z"/>
    <path id="SvgjsPath1011-9" data-name="SvgjsPath1011" class="cls-2" d="M856.85,86.18v41.13a11.76,11.76,0,0,1-11.75,11.75H734.43l-19.58,19.58-19.58-19.58H584.59a11.76,11.76,0,0,1-11.75-11.75V86.18"/>
    <text class="cls-3" transform="translate(616.85 119.31)">С<tspan class="cls-4" x="11.06" y="0">Д</tspan><tspan class="cls-5" x="23.98" y="0">А</tspan><tspan class="cls-6" x="34.61" y="0">Ч</tspan><tspan x="46.4" y="0">А: 3 КВАР</tspan><tspan class="cls-7" x="122.89" y="0">Т</tspan><tspan class="cls-8" x="132.38" y="0">А</tspan><tspan x="143.61" y="0">Л 2018</tspan></text>
    <text class="cls-9" transform="translate(678.85 55.76) scale(1.04 1)">37/2</text>
  </g>
  <g>
    <path id="SvgjsPath1010-10" data-name="SvgjsPath1010" class="cls-1" d="M923.59,0h260.5a11.77,11.77,0,0,1,11.75,11.75V127.31a11.76,11.76,0,0,1-11.75,11.75H1073.43l-19.58,19.58-19.58-19.58H923.59a11.76,11.76,0,0,1-11.75-11.75V11.75A11.77,11.77,0,0,1,923.59,0Z"/>
    <path id="SvgjsPath1011-10" data-name="SvgjsPath1011" class="cls-2" d="M1195.85,86.18v41.13a11.76,11.76,0,0,1-11.75,11.75H1073.43l-19.58,19.58-19.58-19.58H923.59a11.76,11.76,0,0,1-11.75-11.75V86.18"/>
    <text class="cls-3" transform="translate(955.85 119.31)">С<tspan class="cls-4" x="11.06" y="0">Д</tspan><tspan class="cls-5" x="23.98" y="0">А</tspan><tspan class="cls-6" x="34.61" y="0">Ч</tspan><tspan x="46.4" y="0">А: 3 КВАР</tspan><tspan class="cls-7" x="122.89" y="0">Т</tspan><tspan class="cls-8" x="132.38" y="0">А</tspan><tspan x="143.61" y="0">Л 2018</tspan></text>
    <text class="cls-9" transform="translate(1017.85 55.76) scale(1.04 1)">37/3</text>
  </g>
  <g>
    <path id="SvgjsPath1010-11" data-name="SvgjsPath1010" class="cls-1" d="M1264.59,0h260.5a11.77,11.77,0,0,1,11.75,11.75V127.31a11.76,11.76,0,0,1-11.75,11.75H1414.43l-19.58,19.58-19.58-19.58H1264.59a11.76,11.76,0,0,1-11.75-11.75V11.75A11.77,11.77,0,0,1,1264.59,0Z"/>
    <path id="SvgjsPath1011-11" data-name="SvgjsPath1011" class="cls-2" d="M1536.85,86.18v41.13a11.76,11.76,0,0,1-11.75,11.75H1414.43l-19.58,19.58-19.58-19.58H1264.59a11.76,11.76,0,0,1-11.75-11.75V86.18"/>
    <text class="cls-3" transform="translate(1296.85 119.31)">С<tspan class="cls-4" x="11.06" y="0">Д</tspan><tspan class="cls-5" x="23.98" y="0">А</tspan><tspan class="cls-6" x="34.61" y="0">Ч</tspan><tspan x="46.4" y="0">А: 3 КВАР</tspan><tspan class="cls-7" x="122.89" y="0">Т</tspan><tspan class="cls-8" x="132.38" y="0">А</tspan><tspan x="143.61" y="0">Л 2018</tspan></text>
    <text class="cls-9" transform="translate(1358.85 55.76) scale(1.04 1)">37/4</text>
  </g>
  <g>
    <path id="SvgjsPath1010-12" data-name="SvgjsPath1010" class="cls-1" d="M1605.59,0h260.5a11.77,11.77,0,0,1,11.75,11.75V127.31a11.76,11.76,0,0,1-11.75,11.75H1755.43l-19.58,19.58-19.58-19.58H1605.59a11.76,11.76,0,0,1-11.75-11.75V11.75A11.77,11.77,0,0,1,1605.59,0Z"/>
    <path id="SvgjsPath1011-12" data-name="SvgjsPath1011" class="cls-2" d="M1877.85,86.18v41.13a11.76,11.76,0,0,1-11.75,11.75H1755.43l-19.58,19.58-19.58-19.58H1605.59a11.76,11.76,0,0,1-11.75-11.75V86.18"/>
    <text class="cls-3" transform="translate(1637.85 119.31)">С<tspan class="cls-4" x="11.06" y="0">Д</tspan><tspan class="cls-5" x="23.98" y="0">А</tspan><tspan class="cls-6" x="34.61" y="0">Ч</tspan><tspan x="46.4" y="0">А: 3 КВАР</tspan><tspan class="cls-7" x="122.89" y="0">Т</tspan><tspan class="cls-8" x="132.38" y="0">А</tspan><tspan x="143.61" y="0">Л 2018</tspan></text>
    <text class="cls-9" transform="translate(1699.85 55.76) scale(1.04 1)">37/5</text>
  </g>
  <g>
    <path id="SvgjsPath1010-13" data-name="SvgjsPath1010" class="cls-1" d="M1021.6,479.06h260.5a11.77,11.77,0,0,1,11.75,11.75V606.37a11.76,11.76,0,0,1-11.75,11.75H1171.43l-19.58,19.58-19.58-19.58H1021.6a11.76,11.76,0,0,1-11.75-11.75V490.81A11.77,11.77,0,0,1,1021.6,479.06Z"/>
    <path id="SvgjsPath1011-13" data-name="SvgjsPath1011" class="cls-2" d="M1293.85,565.24v41.13a11.76,11.76,0,0,1-11.75,11.75H1171.43l-19.58,19.58-19.58-19.58H1021.6a11.76,11.76,0,0,1-11.75-11.75V565.24"/>
    <text class="cls-3" transform="translate(1053.85 598.38)">С<tspan class="cls-4" x="11.06" y="0">Д</tspan><tspan class="cls-5" x="23.98" y="0">А</tspan><tspan class="cls-6" x="34.61" y="0">Ч</tspan><tspan x="46.4" y="0">А: 3 КВАР</tspan><tspan class="cls-7" x="122.89" y="0">Т</tspan><tspan class="cls-8" x="132.38" y="0">А</tspan><tspan x="143.61" y="0">Л 2018</tspan></text>
    <text class="cls-9" transform="translate(1106 534.82) scale(1.04 1)">37/14</text>
  </g>
  <g>
    <path id="SvgjsPath1010-14" data-name="SvgjsPath1010" class="cls-1" d="M1875.08,356.65h260.5a11.77,11.77,0,0,1,11.75,11.75V484a11.76,11.76,0,0,1-11.75,11.75H2024.91l-19.58,19.58-19.58-19.58H1875.08A11.76,11.76,0,0,1,1863.33,484V368.4A11.77,11.77,0,0,1,1875.08,356.65Z"/>
    <path id="SvgjsPath1011-14" data-name="SvgjsPath1011" class="cls-2" d="M2147.33,442.83V484a11.76,11.76,0,0,1-11.75,11.75H2024.91l-19.58,19.58-19.58-19.58H1875.08A11.76,11.76,0,0,1,1863.33,484V442.83"/>
    <text class="cls-3" transform="translate(1907.33 475.96)">С<tspan class="cls-4" x="11.06" y="0">Д</tspan><tspan class="cls-5" x="23.98" y="0">А</tspan><tspan class="cls-6" x="34.61" y="0">Ч</tspan><tspan x="46.4" y="0">А: 3 КВАР</tspan><tspan class="cls-7" x="122.89" y="0">Т</tspan><tspan class="cls-8" x="132.38" y="0">А</tspan><tspan x="143.61" y="0">Л 2018</tspan></text>
    <text class="cls-9" transform="translate(1969.33 412.41) scale(1.04 1)">37/6</text>
  </g>
</svg>
